<?xml version="1.0" encoding="UTF-8" standalone="no"?>
<!-- Created with Inkscape (http://www.inkscape.org/) -->

<svg
   width="102.37584mm"
   height="63.283695mm"
   viewBox="0 0 102.37584 63.283695"
   version="1.1"
   id="svg1"
   xml:space="preserve"
   inkscape:version="1.4 (1:1.4+202410161351+e7c3feb100)"
   sodipodi:docname="logo.svg"
   xmlns:inkscape="http://www.inkscape.org/namespaces/inkscape"
   xmlns:sodipodi="http://sodipodi.sourceforge.net/DTD/sodipodi-0.dtd"
   xmlns="http://www.w3.org/2000/svg"
   xmlns:svg="http://www.w3.org/2000/svg"><sodipodi:namedview
     id="namedview1"
     pagecolor="#ffffff"
     bordercolor="#666666"
     borderopacity="1.0"
     inkscape:showpageshadow="2"
     inkscape:pageopacity="0.0"
     inkscape:pagecheckerboard="0"
     inkscape:deskcolor="#d1d1d1"
     inkscape:document-units="mm"
     inkscape:zoom="0.75465396"
     inkscape:cx="96.070522"
     inkscape:cy="312.72611"
     inkscape:window-width="3440"
     inkscape:window-height="1403"
     inkscape:window-x="0"
     inkscape:window-y="0"
     inkscape:window-maximized="1"
     inkscape:current-layer="layer1" /><defs
     id="defs1" /><g
     inkscape:label="Layer 1"
     inkscape:groupmode="layer"
     id="layer1"
     transform="translate(-52.590328,-78.359589)"><rect
       style="font-variation-settings:normal;opacity:1;vector-effect:none;fill:#faf7f3;fill-opacity:1;fill-rule:evenodd;stroke:none;stroke-width:1;stroke-linecap:butt;stroke-linejoin:miter;stroke-miterlimit:4;stroke-dasharray:none;stroke-dashoffset:0;stroke-opacity:1;-inkscape-stroke:none;stop-color:#000000;stop-opacity:1"
       id="rect8"
       width="102.37584"
       height="63.283695"
       x="52.590328"
       y="78.359589"
       ry="1.1576095" /><path
       style="font-variation-settings:normal;opacity:1;vector-effect:none;fill:#f0c751;fill-opacity:1;fill-rule:evenodd;stroke:none;stroke-width:0.0468498;stroke-linecap:butt;stroke-linejoin:miter;stroke-miterlimit:4;stroke-dasharray:none;stroke-dashoffset:0;stroke-opacity:1;-inkscape-stroke:none;stop-color:#000000;stop-opacity:1"
       d="m 109.46902,137.15545 c 1.08544,-1.8231 2.91622,-3.04862 4.53528,-4.36493 2.98856,-2.21395 6.47769,-3.75774 10.10307,-4.56055 2.80532,-0.38491 5.58986,-1.08302 8.44971,-0.98174 5.08582,-0.12511 10.17347,-0.0616 15.26018,-0.0775 -1.51255,1.47741 -3.14904,2.77115 -4.86246,3.99924 -3.64032,2.75244 -7.84809,4.93332 -12.41319,5.58889 -3.27285,0.64433 -6.64211,0.2955 -9.95909,0.43857 -3.70444,0.0314 -7.40961,0.0358 -11.1135,-0.042 z"
       id="path3" /><path
       style="fill:#2b4a54;fill-opacity:1;fill-rule:evenodd;stroke:none;stroke-width:0.0468498;stroke-dasharray:none"
       d="m 83.809993,137.096 c 1.442815,-1.57766 3.216612,-2.84791 4.985909,-4.0443 2.798135,-1.86681 5.809464,-3.43445 9.056618,-4.35519 3.73528,-1.21273 7.6879,-1.60565 11.60065,-1.50801 3.8475,0.026 7.69943,-0.0202 11.54381,0.12349 -3.41739,1.06524 -6.83545,2.31749 -9.72858,4.48322 -2.05882,1.5691 -3.93874,3.38513 -5.54621,5.41601 -7.23823,-0.0231 -14.4781,0.0647 -21.714912,-0.0901 z m 14.477548,-1.72559 c 1.083055,-0.97541 2.154059,-1.96841 3.310229,-2.8579 -1.05683,0.0335 -2.249945,-0.22117 -3.101356,0.58161 -1.412155,0.97096 -2.746465,2.05505 -3.964176,3.26148 0.950266,-0.0537 1.900532,-0.10747 2.850798,-0.1612 0.301502,-0.27466 0.603003,-0.54933 0.904505,-0.82399 z m 7.728739,-5.04892 c 0.52793,-0.22504 2.32922,-1.09914 0.68829,-1.02971 -1.61516,-0.0769 -3.003,0.90782 -4.4147,1.55016 0.89788,0.83524 2.43244,0.1302 3.41622,-0.36677 l 0.15214,-0.0748 0.15805,-0.0788 z"
       id="path4" /><path
       style="fill:#5d9572;fill-opacity:1;fill-rule:evenodd;stroke:none;stroke-width:0.0468498;stroke-dasharray:none"
       d="m 63.357157,137.09494 c 2.690798,-2.70356 5.985101,-4.73911 9.427187,-6.34337 1.399991,-0.67113 2.8913,-1.11064 4.334974,-1.67163 1.720076,-0.55429 3.501595,-0.84923 5.259635,-1.19005 2.271295,-0.48577 4.59044,-0.66966 6.912661,-0.60692 4.968878,-0.0397 10.596135,-0.16447 15.563716,0.0361 -4.47795,0.69447 -9.591595,1.85603 -13.528041,4.16206 -2.755808,1.57248 -5.320936,3.48051 -7.66719,5.60967 -1.776565,0.28983 -3.682571,0.0257 -5.508141,0.11854 -4.930738,-0.006 -9.86821,0.0568 -14.794801,-0.11441 z"
       id="path5"
       sodipodi:nodetypes="sccccccccss" /><g
       id="g7"
       transform="translate(0.29502601,0.07612726)"
       style="fill:#4592c2;fill-opacity:1;stroke:none"><path
         style="fill:#4592c2;fill-opacity:1;fill-rule:evenodd;stroke:none;stroke-width:0.17707;stroke-dasharray:none"
         d="m 281.06899,431.0298 c -2.25205,-1.22481 -16.58244,-19.06015 -23.34847,-29.05906 -4.43749,-6.55779 -9.58129,-15.22166 -9.04413,-15.23334 0.18148,-0.004 0.0792,-0.1666 -0.22723,-0.36145 -1.05082,-0.66814 -6.4189,-13.47987 -5.95949,-14.22322 0.136,-0.22004 0.001,-0.40007 -0.29901,-0.40007 -0.30045,0 -0.43477,-0.29055 -0.29851,-0.64566 0.13627,-0.35511 0.0705,-0.82946 -0.14621,-1.05412 -0.74678,-0.77422 -1.40679,-5.98135 -1.40679,-11.0988 0,-4.83263 0.77282,-11.09439 1.36935,-11.09512 0.14871,-1.8e-4 0.29948,-0.50622 0.33504,-1.12453 0.0847,-1.47259 2.95578,-8.08526 4.93397,-11.3639 1.90908,-3.1641 7.38574,-9.13866 10.76961,-11.7487 3.34536,-2.58034 9.74145,-5.91245 13.60754,-7.08897 4.84833,-1.47544 12.04208,-2.09774 17.37525,-1.50306 4.76863,0.53173 11.5625,2.42969 12.67325,3.54044 0.36635,0.36635 0.7966,0.53558 0.95611,0.37607 0.15952,-0.15951 0.29003,-0.0792 0.29003,0.17848 0,0.25767 0.26577,0.4685 0.59059,0.4685 1.46939,0 7.19678,4.32625 10.96624,8.28348 3.85115,4.04298 8.27622,10.61754 8.27622,12.2964 0,0.36226 0.17569,0.65866 0.39042,0.65866 0.21473,0 0.35785,0.15812 0.31806,0.35138 -0.0398,0.19325 0.28323,1.15144 0.71783,2.12931 1.96022,4.4105 2.40058,7.34085 2.37291,15.79071 -0.0248,7.57477 -0.12507,8.51885 -1.31746,12.40551 -0.70983,2.31374 -1.43563,4.31657 -1.61289,4.45072 -0.17726,0.13416 -0.39512,0.66025 -0.48413,1.16909 -0.25285,1.44541 -5.72487,12.18378 -8.71986,17.11198 -4.92601,8.10563 -17.14319,24.83036 -18.13825,24.83036 -0.21293,0 -0.38714,0.2274 -0.38714,0.50533 0,0.69828 -5.57265,7.45913 -6.14821,7.45913 -0.25633,0 -0.35641,0.17742 -0.22239,0.39426 0.28006,0.45315 -2.26856,2.98667 -3.78842,3.766 -1.35408,0.69431 -2.92106,0.63518 -4.39383,-0.16581 z m 5.1829,-20.86036 c 1.33715,-1.80371 2.62205,-3.27948 2.85533,-3.27948 0.23329,0 0.42415,-0.22044 0.42415,-0.48987 0,-0.26943 1.85468,-2.95743 4.12151,-5.97334 9.80418,-13.04399 16.57573,-25.27181 18.42367,-33.26881 1.26066,-5.45554 1.0505,-12.1293 -0.54133,-17.19041 -0.56731,-1.80371 -0.98871,-3.36132 -0.93645,-3.46135 0.0523,-0.10003 -0.0994,-0.31085 -0.33693,-0.4685 -0.23757,-0.15764 -1.02154,-1.30178 -1.74217,-2.54252 -1.71763,-2.95736 -5.33235,-6.87956 -8.36202,-9.07332 -1.33517,-0.96679 -2.58246,-1.97557 -2.77178,-2.24175 -0.18931,-0.26618 -0.34742,-0.32155 -0.35137,-0.12306 -0.004,0.19849 -0.8104,-0.0489 -1.79214,-0.54973 -4.36293,-2.2258 -11.97537,-3.03522 -17.51749,-1.86261 -2.42502,0.51309 -8.34138,2.65662 -8.80738,3.19097 -0.12884,0.14773 -1.13778,0.88167 -2.2421,1.63097 -3.03774,2.06116 -7.1707,6.73037 -8.96279,10.12571 -0.88037,1.66799 -1.72367,3.13812 -1.87398,3.26695 -0.15032,0.12884 -0.30418,0.55049 -0.34192,0.937 -0.0377,0.38651 -0.42234,1.96769 -0.85468,3.51373 -1.24683,4.45868 -1.06704,11.69247 0.41612,16.74237 1.6399,5.58358 4.64301,11.68051 9.10004,18.47494 2.05721,3.13608 3.61827,5.82408 3.46902,5.97334 -0.14925,0.14925 -0.0439,0.27136 0.23409,0.27136 0.278,0 1.51176,1.42307 2.74168,3.16236 3.83752,5.42683 12.46518,16.51453 12.85042,16.51453 0.20202,0 1.46135,-1.47576 2.7985,-3.27948 z"
         id="path6"
         transform="scale(0.26458333)" /><path
         style="fill:#4592c2;fill-opacity:1;fill-rule:evenodd;stroke:none;stroke-width:0.17707;stroke-dasharray:none"
         d="m 278.87306,373.97954 c -0.83744,-0.26864 -1.52262,-0.68121 -1.52262,-0.91681 0,-0.23561 -0.21231,-0.29716 -0.47181,-0.13678 -0.25949,0.16037 -0.59782,-0.0368 -0.75183,-0.43816 -0.15402,-0.40136 -0.46108,-0.61786 -0.68235,-0.4811 -0.61052,0.37731 -4.01334,-3.23539 -5.15469,-5.47262 -3.38023,-6.6258 -0.58607,-15.91684 5.77231,-19.19385 0.96628,-0.498 1.7601,-0.74306 1.76404,-0.54457 0.004,0.19849 0.17752,0.0925 0.38572,-0.23557 0.38203,-0.60193 3.06833,-1.20202 5.22908,-1.16812 2.50734,0.0394 4.74607,0.53934 6.74267,1.50587 2.28406,1.1057 6.11449,4.93129 5.66528,5.65813 -0.15528,0.25124 -0.082,0.4568 0.16296,0.4568 0.92012,0 1.9525,3.80507 1.9525,7.19636 0,2.89182 -0.22587,3.88144 -1.44087,6.31286 -2.53747,5.07793 -7.5081,8.08704 -13.20469,7.99384 -1.6077,-0.0263 -3.60826,-0.26763 -4.4457,-0.53628 z"
         id="path7"
         transform="scale(0.26458333)" /></g><path
       style="-inkscape-font-specification:'Poppins Semi-Bold';font-variation-settings:normal;opacity:1;vector-effect:none;fill:#284750;fill-opacity:1;stroke:none;stroke-width:0.021949;stroke-linecap:butt;stroke-linejoin:miter;stroke-miterlimit:4;stroke-dasharray:none;stroke-dashoffset:0;stroke-opacity:1;-inkscape-stroke:none;stop-color:#000000;stop-opacity:1"
       d="m 97.511686,108.88567 c -1.49691,0 -2.87163,-0.35132 -4.12415,-1.05395 -1.25251,-0.70263 -2.24536,-1.67256 -2.97854,-2.90981 -0.73318,-1.25251 -1.09977,-2.66541 -1.09977,-4.2387 0,-1.558008 0.36659,-2.955633 1.09977,-4.192876 0.73318,-1.252517 1.72603,-2.230092 2.97854,-2.932723 1.25252,-0.702632 2.62723,-1.053948 4.12415,-1.053948 1.51218,0 2.886904,0.351316 4.124144,1.053948 1.25251,0.702631 2.23772,1.680206 2.95563,2.932723 0.73318,1.237243 1.09977,2.634868 1.09977,4.192876 0,1.57329 -0.36659,2.98619 -1.09977,4.2387 -0.71791,1.23725 -1.70312,2.20718 -2.95563,2.90981 -1.25252,0.70263 -2.627234,1.05395 -4.124144,1.05395 z m 0,-2.86399 c 0.9623,0 1.81004,-0.21384 2.543224,-0.64153 0.73318,-0.44296 1.30598,-1.06922 1.71839,-1.87877 0.41241,-0.80956 0.61862,-1.74895 0.61862,-2.81817 0,-1.069221 -0.20621,-2.000971 -0.61862,-2.79525 -0.41241,-0.809554 -0.98521,-1.428175 -1.71839,-1.855864 -0.733184,-0.427689 -1.580924,-0.641533 -2.543224,-0.641533 -0.9623,0 -1.81768,0.213844 -2.56614,0.641533 -0.73318,0.427689 -1.30597,1.04631 -1.71839,1.855864 -0.41241,0.794279 -0.61862,1.726029 -0.61862,2.79525 0,1.06922 0.20621,2.00861 0.61862,2.81817 0.41242,0.80955 0.98521,1.43581 1.71839,1.87877 0.74846,0.42769 1.60384,0.64153 2.56614,0.64153 z m 13.770044,-9.214965 c 0.41242,-0.580435 0.97758,-1.061585 1.69548,-1.44345 0.73319,-0.39714 1.56565,-0.595709 2.4974,-0.595709 1.0845,0 2.06208,0.267305 2.93273,0.801916 0.88593,0.534611 1.58092,1.298341 2.08498,2.29119 0.51933,0.977576 0.779,2.115535 0.779,3.413878 0,1.29834 -0.25967,2.45157 -0.779,3.4597 -0.50406,0.99284 -1.19905,1.76421 -2.08498,2.3141 -0.87065,0.54988 -1.84823,0.82483 -2.93273,0.82483 -0.93175,0 -1.75657,-0.19094 -2.47448,-0.5728 -0.70263,-0.38187 -1.27543,-0.86302 -1.7184,-1.44345 v 5.21294 h -3.20766 V 94.973763 h 3.20766 z m 6.71319,4.467825 c 0,-0.76374 -0.16038,-1.420543 -0.48115,-1.970423 -0.30549,-0.565164 -0.71791,-0.992854 -1.23724,-1.283071 -0.50406,-0.290218 -1.05395,-0.435326 -1.64966,-0.435326 -0.58043,0 -1.13032,0.152746 -1.64966,0.458238 -0.50406,0.290217 -0.91647,0.717907 -1.23724,1.283069 -0.30549,0.56516 -0.45824,1.229603 -0.45824,1.993333 0,0.76373 0.15275,1.42818 0.45824,1.99334 0.32077,0.56516 0.73318,1.00048 1.23724,1.30598 0.51934,0.29021 1.06923,0.43532 1.64966,0.43532 0.59571,0 1.1456,-0.15275 1.64966,-0.45824 0.51933,-0.30549 0.93175,-0.74081 1.23724,-1.30597 0.32077,-0.56516 0.48115,-1.23725 0.48115,-2.01625 z m 17.41303,-0.22912 c 0,0.45824 -0.0305,0.87065 -0.0916,1.23724 h -9.27932 c 0.0764,0.91648 0.39714,1.63438 0.9623,2.15372 0.56516,0.51934 1.26015,0.77901 2.08498,0.77901 1.19142,0 2.03916,-0.5117 2.54322,-1.5351 h 3.4597 c -0.36659,1.22196 -1.06923,2.23009 -2.1079,3.02437 -1.03867,0.779 -2.3141,1.16851 -3.82628,1.16851 -1.22197,0 -2.32175,-0.26731 -3.29932,-0.80192 -0.9623,-0.54989 -1.71839,-1.32126 -2.26828,-2.3141 -0.53461,-0.99286 -0.80191,-2.13845 -0.80191,-3.43679 0,-1.31362 0.2673,-2.466848 0.80191,-3.459698 0.53461,-0.992849 1.28307,-1.756579 2.24537,-2.29119 0.9623,-0.534611 2.06971,-0.801916 3.32223,-0.801916 1.20669,0 2.28355,0.259668 3.23057,0.779005 0.9623,0.519336 1.70312,1.260154 2.22246,2.222454 0.53461,0.947028 0.80191,2.039162 0.80191,3.276405 z m -3.32222,-0.91648 c -0.0153,-0.824829 -0.31312,-1.481636 -0.89357,-1.970423 -0.58043,-0.504062 -1.2907,-0.756093 -2.1308,-0.756093 -0.79428,0 -1.46636,0.244393 -2.01625,0.733181 -0.53461,0.473512 -0.86302,1.137956 -0.98521,1.993335 z m 10.57649,-5.338472 c 1.51219,0 2.73416,0.48115 3.66591,1.44345 0.93175,0.947024 1.39762,2.275914 1.39762,3.986672 v 7.44637 h -3.20766 v -7.01104 c 0,-1.00813 -0.25203,-1.779498 -0.7561,-2.314108 -0.50406,-0.549886 -1.19141,-0.824828 -2.06207,-0.824828 -0.88592,0 -1.58855,0.274942 -2.10789,0.824828 -0.50406,0.53461 -0.7561,1.305978 -0.7561,2.314108 v 7.01104 h -3.20766 V 94.973763 h 3.20766 v 1.580921 c 0.4277,-0.549886 0.96995,-0.977574 1.62675,-1.283066 0.67208,-0.320767 1.40526,-0.48115 2.19954,-0.48115 z"
       id="text7"
       aria-label="Open"
       sodipodi:nodetypes="sscscssccscssscsscssccsscsccsccsccscccccccsccsccsccsccscccsscccsccssssccccccscccscsccscscsccccccs" /><path
       d="m 88.58855,116.37744 c 0,0.68069 -0.220582,1.24792 -0.661744,1.7017 -0.433805,0.44597 -1.099223,0.66895 -1.996254,0.66895 h -1.477897 v 3.41516 h -1.003647 v -8.17994 h 2.481544 c 0.867619,0 1.525679,0.22298 1.974199,0.66895 0.455869,0.44597 0.683799,1.02103 0.683799,1.72518 z m -2.657998,1.49046 c 0.558801,0 0.970552,-0.12909 1.235251,-0.38728 0.2647,-0.25819 0.397045,-0.62591 0.397045,-1.10318 0,-1.00928 -0.544096,-1.51393 -1.632296,-1.51393 h -1.477897 v 3.00439 z m 4.907909,-4.38923 v 8.68458 h -1.003638 v -8.68458 z m 8.790136,5.45723 c 0,-0.66504 0.124997,-1.24402 0.374993,-1.73692 0.24999,-0.50074 0.59557,-0.88802 1.03673,-1.16186 0.44851,-0.27384 0.95952,-0.41076 1.53304,-0.41076 0.74262,0 1.3529,0.19169 1.83082,0.57506 0.48528,0.38337 0.80512,0.9154 0.95953,1.59609 h -1.08085 c -0.10293,-0.39119 -0.30514,-0.70024 -0.6066,-0.92714 -0.29411,-0.22689 -0.66174,-0.34034 -1.1029,-0.34034 -0.57352,0 -1.03674,0.21125 -1.38966,0.63374 -0.35294,0.41467 -0.5294,1.00538 -0.5294,1.77213 0,0.77456 0.17646,1.3731 0.5294,1.79559 0.35292,0.42249 0.81614,0.63373 1.38966,0.63373 0.44116,0 0.80879,-0.10953 1.1029,-0.3286 0.29412,-0.21907 0.49631,-0.53203 0.6066,-0.93887 h 1.08085 c -0.16176,0.65721 -0.48528,1.18533 -0.97056,1.58434 -0.48528,0.3912 -1.09188,0.5868 -1.81979,0.5868 -0.57352,0 -1.08453,-0.13692 -1.53304,-0.41075 -0.44116,-0.27385 -0.78674,-0.66113 -1.03673,-1.16186 -0.249996,-0.50073 -0.374993,-1.08753 -0.374993,-1.76038 z m 12.584143,-0.23472 c 0,0.20342 -0.011,0.41858 -0.0331,0.64547 h -4.83074 c 0.0367,0.63374 0.23897,1.13056 0.6066,1.49046 0.37499,0.35208 0.82719,0.52811 1.35658,0.52811 0.4338,0 0.79409,-0.10562 1.08085,-0.31686 0.29411,-0.21907 0.49999,-0.50856 0.61763,-0.86846 h 1.08084 c -0.16176,0.61809 -0.48527,1.12274 -0.97055,1.51393 -0.48528,0.38338 -1.0882,0.57506 -1.80877,0.57506 -0.57352,0 -1.0882,-0.13692 -1.54407,-0.41075 -0.44852,-0.27385 -0.80145,-0.66113 -1.05879,-1.16186 -0.25735,-0.50856 -0.38602,-1.09536 -0.38602,-1.76038 0,-0.66504 0.125,-1.24793 0.37499,-1.74866 0.24999,-0.50074 0.59924,-0.88411 1.04777,-1.15012 0.45586,-0.27384 0.97791,-0.41076 1.56612,-0.41076 0.57352,0 1.08085,0.13301 1.52201,0.39903 0.44117,0.26601 0.77939,0.63374 1.01467,1.10317 0.24264,0.46161 0.36396,0.98582 0.36396,1.57262 z m -1.03673,-0.22299 c 0,-0.40684 -0.0845,-0.75501 -0.25367,-1.04449 -0.16911,-0.29732 -0.40072,-0.5203 -0.69483,-0.66895 -0.28675,-0.15648 -0.60659,-0.23472 -0.95953,-0.23472 -0.50733,0 -0.94114,0.17212 -1.30142,0.51638 -0.35294,0.34426 -0.55514,0.82152 -0.60661,1.43178 z M 122.3043,116.354 c -0.21322,-0.47727 -0.52204,-0.845 -0.92643,-1.10318 -0.4044,-0.26602 -0.87498,-0.39903 -1.41173,-0.39903 -0.53674,0 -1.02202,0.13301 -1.45583,0.39903 -0.42645,0.25818 -0.76468,0.63374 -1.01468,1.12664 -0.24263,0.48509 -0.36396,1.04841 -0.36396,1.68998 0,0.64156 0.12133,1.20489 0.36396,1.68997 0.25,0.48509 0.58823,0.86063 1.01468,1.12665 0.43381,0.25818 0.91909,0.38728 1.45583,0.38728 0.74997,0 1.36761,-0.23863 1.85289,-0.71589 0.48528,-0.47727 0.76835,-1.12274 0.84923,-1.93642 h -3.06607 v -0.86846 h 4.13589 v 0.82151 c -0.0588,0.67286 -0.25733,1.29095 -0.59556,1.85427 -0.33823,0.5555 -0.78307,0.99756 -1.33452,1.32617 -0.55145,0.32078 -1.16541,0.48116 -1.84186,0.48116 -0.71321,0 -1.36393,-0.17603 -1.95214,-0.52811 -0.58821,-0.3599 -1.05512,-0.85672 -1.40069,-1.49046 -0.33822,-0.63374 -0.50734,-1.34964 -0.50734,-2.14767 0,-0.79805 0.16912,-1.51394 0.50734,-2.14767 0.34557,-0.64157 0.81248,-1.13839 1.40069,-1.49047 0.58821,-0.35989 1.23893,-0.53985 1.95214,-0.53985 0.81616,0 1.53673,0.21516 2.1617,0.64547 0.63233,0.43032 1.09187,1.03668 1.37864,1.81908 z m 8.11739,-0.62202 v 6.43129 h -1.00364 v -0.95061 c -0.19118,0.3286 -0.45955,0.5868 -0.80513,0.77457 -0.33822,0.17996 -0.71321,0.26993 -1.12496,0.26993 -0.47057,0 -0.89336,-0.10171 -1.26834,-0.30514 -0.37499,-0.21124 -0.67277,-0.5242 -0.89335,-0.93888 -0.21323,-0.41467 -0.31984,-0.91931 -0.31984,-1.51393 v -3.76723 h 0.99261 v 3.62641 c 0,0.63373 0.15073,1.12272 0.45219,1.46698 0.30146,0.33643 0.71322,0.50464 1.23526,0.50464 0.53675,0 0.95953,-0.17603 1.26834,-0.52811 0.30881,-0.35207 0.46322,-0.86455 0.46322,-1.5374 v -3.53252 z m 2.21684,-1.04449 c -0.19117,0 -0.35293,-0.0704 -0.48528,-0.21124 -0.13235,-0.14084 -0.19852,-0.31296 -0.19852,-0.51638 0,-0.20342 0.0662,-0.37555 0.19852,-0.51638 0.13235,-0.14084 0.29411,-0.21126 0.48528,-0.21126 0.18382,0 0.33823,0.0705 0.46322,0.21126 0.13235,0.14083 0.19852,0.31296 0.19852,0.51638 0,0.20342 -0.0662,0.37554 -0.19852,0.51638 -0.12499,0.14083 -0.2794,0.21124 -0.46322,0.21124 z m 0.48528,1.04449 v 6.43129 h -1.00365 v -6.43129 z m 1.3345,3.19218 c 0,-0.65721 0.12499,-1.23228 0.37499,-1.72518 0.24999,-0.50074 0.59189,-0.88802 1.0257,-1.16186 0.44116,-0.27384 0.93379,-0.41076 1.4779,-0.41076 0.47057,0 0.90806,0.11736 1.31245,0.35208 0.4044,0.22689 0.71322,0.52811 0.92644,0.90367 v -3.40342 h 1.01467 v 8.68458 h -1.01467 v -1.2088 c -0.19852,0.38337 -0.49262,0.70024 -0.88232,0.95061 -0.3897,0.24254 -0.84557,0.36381 -1.36761,0.36381 -0.53674,0 -1.0257,-0.14083 -1.46686,-0.42249 -0.43381,-0.28167 -0.77571,-0.67677 -1.0257,-1.18533 -0.25,-0.50856 -0.37499,-1.08752 -0.37499,-1.73691 z m 5.11748,0.0118 c 0,-0.48509 -0.0919,-0.90759 -0.27573,-1.26749 -0.18381,-0.35989 -0.4338,-0.63374 -0.74997,-0.82151 -0.30881,-0.1956 -0.65072,-0.2934 -1.0257,-0.2934 -0.37499,0 -0.71689,0.0939 -1.0257,0.28166 -0.30882,0.18777 -0.55514,0.46162 -0.73895,0.82152 -0.18382,0.35989 -0.27573,0.78239 -0.27573,1.26748 0,0.4929 0.0919,0.92322 0.27573,1.29095 0.18381,0.35989 0.43013,0.63765 0.73895,0.83325 0.30881,0.18777 0.65071,0.28165 1.0257,0.28165 0.37498,0 0.71689,-0.0939 1.0257,-0.28165 0.31617,-0.1956 0.56616,-0.47336 0.74997,-0.83325 0.18382,-0.36773 0.27573,-0.79413 0.27573,-1.27921 z m 8.22767,-0.23472 c 0,0.20342 -0.0111,0.41858 -0.0331,0.64547 h -4.83073 c 0.0367,0.63374 0.23897,1.13056 0.6066,1.49046 0.37499,0.35208 0.82718,0.52811 1.35657,0.52811 0.43382,0 0.7941,-0.10562 1.08085,-0.31686 0.29412,-0.21907 0.49999,-0.50856 0.61763,-0.86846 h 1.08085 c -0.16177,0.61809 -0.48528,1.12274 -0.97056,1.51393 -0.48528,0.38338 -1.0882,0.57506 -1.80877,0.57506 -0.57351,0 -1.0882,-0.13692 -1.54407,-0.41075 -0.44851,-0.27385 -0.80143,-0.66113 -1.05879,-1.16186 -0.25734,-0.50856 -0.38601,-1.09535 -0.38601,-1.76038 0,-0.66504 0.125,-1.24793 0.37498,-1.74866 0.25,-0.50073 0.59925,-0.88411 1.04777,-1.15011 0.45587,-0.27385 0.97791,-0.41077 1.56612,-0.41077 0.57352,0 1.08085,0.13301 1.52202,0.39903 0.44116,0.26601 0.77938,0.63374 1.01467,1.10317 0.24263,0.46161 0.36395,0.98582 0.36395,1.57262 z m -1.03673,-0.22299 c 0,-0.40684 -0.0845,-0.75501 -0.25368,-1.04449 -0.16911,-0.29732 -0.40071,-0.5203 -0.69483,-0.66895 -0.28675,-0.15648 -0.60659,-0.23472 -0.95953,-0.23472 -0.50733,0 -0.94114,0.17212 -1.30142,0.51638 -0.35294,0.34426 -0.55514,0.82152 -0.6066,1.43178 z"
       id="text8"
       style="font-size:11.377px;line-height:1.25;font-family:Poppins;-inkscape-font-specification:Poppins;font-variation-settings:normal;text-align:center;text-anchor:middle;opacity:1;vector-effect:none;fill:#284750;fill-opacity:1;stroke:none;stroke-width:0.021949;stroke-linecap:butt;stroke-linejoin:miter;stroke-miterlimit:4;stroke-dasharray:none;stroke-dashoffset:0;stroke-opacity:1;-inkscape-stroke:none;stop-color:#000000;stop-opacity:1"
       aria-label="Place Guide"
       sodipodi:nodetypes="scsccccscsssssccscccccsccsccccscsssscccscssscccsccccsccsscsscsscccscccccsccsccsscccccccsccsccsccccccccsccsccscsssccssssscscscccccsccsccccccccscsssscssssccsccsscccsccccsccsscsscsscccsccc" /><path
       style="font-variation-settings:normal;opacity:1;vector-effect:none;fill:#284750;fill-opacity:1;fill-rule:evenodd;stroke:none;stroke-width:0.021949;stroke-linecap:butt;stroke-linejoin:miter;stroke-miterlimit:4;stroke-dasharray:none;stroke-dashoffset:0;stroke-opacity:1;-inkscape-stroke:none;stop-color:#000000;stop-opacity:1"
       d="m 94.448136,122.21136 c -0.52777,-0.0744 -1.11578,-0.23808 -1.42937,-0.70474 -0.18281,-0.29006 -0.14115,-0.64986 -0.18884,-0.97531 -0.045,-0.50522 0.0707,-1.09077 0.52721,-1.38274 0.56121,-0.41023 1.26401,-0.5504 1.94187,-0.62202 0.3888,0.0702 0.83787,0.16865 1.19497,-0.0548 0.24884,-0.20244 0.0891,-0.54791 -0.0487,-0.76856 -0.29652,-0.50198 -0.96519,-0.60766 -1.48871,-0.46213 -0.24091,0.0708 -0.50165,0.16748 -0.66977,0.35752 -0.23935,0.47649 -1.09031,0.29523 -1.13369,-0.22467 0.0208,-0.29206 0.30002,-0.45956 0.48404,-0.65406 0.44742,-0.4088 1.03095,-0.70965 1.65038,-0.67893 0.78228,-0.0725 1.67416,0.16469 2.12765,0.85158 0.22726,0.34983 0.36843,0.75344 0.37533,1.17327 0.0386,0.78168 0.0459,1.56401 0.0228,2.34649 -0.0107,0.52193 -0.0245,1.0438 -0.0302,1.56582 -0.34551,0.0751 -0.78319,0.0799 -1.03064,-0.21253 -0.11034,-0.1648 -0.4674,0.11358 -0.6711,0.13918 -0.47392,0.15691 -0.94965,0.37785 -1.45788,0.37074 -0.0621,-0.007 -0.1271,-0.0222 -0.17549,-0.0641 z m 1.38924,-1.27993 c 0.5898,-0.17794 0.98065,-0.91766 0.73385,-1.49554 -0.6228,-0.19442 -1.26724,0.0271 -1.89746,0.0521 -0.54141,0.0856 -0.91182,0.815 -0.54205,1.26311 0.29277,0.37474 0.81635,0.41708 1.24733,0.30965 0.15539,-0.0331 0.3079,-0.0789 0.45833,-0.12937 z"
       id="path8" /></g></svg>
